<?xml version="1.0"?>
<svg xmlns="http://www.w3.org/2000/svg" xmlns:xlink="http://www.w3.org/1999/xlink" xmlns:svgjs="http://svgjs.com/svgjs" version="1.1" width="512" height="512" x="0" y="0" viewBox="0 0 512 512" style="enable-background:new 0 0 512 512" xml:space="preserve" class=""><g>
<circle xmlns="http://www.w3.org/2000/svg" style="" cx="256" cy="256" r="256" fill="#ffffff" data-original="#90caf9" class=""/>
<path xmlns="http://www.w3.org/2000/svg" style="" d="M376.928,395.936l-34.016-40.288l40.768-114.304l53.856-26.4l71.456,78.016  C510.784,280.864,512,268.576,512,256c0-64.672-24.16-123.552-63.712-168.64l-20.992,96.768l-54.88,26.912l-100.032-72.896v-68.16  l88.256-47.456C328.672,8.16,293.312,0,256,0c-37.12,0-72.288,8.064-104.096,22.272l88.32,47.648v68.256l-100,72.896l-55.168-26.976  L64.128,86.944C24.32,132.064,0,191.104,0,256c0,12.576,1.216,24.832,2.976,36.928l71.808-78.016l54.08,26.432l40.288,114.368  l-34.432,41.344l-95.488-5.312c33.44,53.312,85.856,93.312,147.904,110.624l-27.328-85.12l35.104-42.176h122.272L351.744,416  l-41.824,90.176c75.04-16.096,137.792-65.056,172.576-131.104L376.928,395.936z" fill="#011627" data-original="#2196f3" class=""/>
<g xmlns="http://www.w3.org/2000/svg">
</g>
<g xmlns="http://www.w3.org/2000/svg">
</g>
<g xmlns="http://www.w3.org/2000/svg">
</g>
<g xmlns="http://www.w3.org/2000/svg">
</g>
<g xmlns="http://www.w3.org/2000/svg">
</g>
<g xmlns="http://www.w3.org/2000/svg">
</g>
<g xmlns="http://www.w3.org/2000/svg">
</g>
<g xmlns="http://www.w3.org/2000/svg">
</g>
<g xmlns="http://www.w3.org/2000/svg">
</g>
<g xmlns="http://www.w3.org/2000/svg">
</g>
<g xmlns="http://www.w3.org/2000/svg">
</g>
<g xmlns="http://www.w3.org/2000/svg">
</g>
<g xmlns="http://www.w3.org/2000/svg">
</g>
<g xmlns="http://www.w3.org/2000/svg">
</g>
<g xmlns="http://www.w3.org/2000/svg">
</g>
</g></svg>
