<?xml version="1.0"?>
<svg xmlns="http://www.w3.org/2000/svg" xmlns:xlink="http://www.w3.org/1999/xlink" xmlns:svgjs="http://svgjs.com/svgjs" version="1.1" width="512" height="512" x="0" y="0" viewBox="0 0 24 24" style="enable-background:new 0 0 512 512" xml:space="preserve" class=""><g><g xmlns="http://www.w3.org/2000/svg" id="color"><g><path d="m12 23.25c-6.203 0-11.25-5.047-11.25-11.25s5.047-11.25 11.25-11.25 11.25 5.047 11.25 11.25-5.047 11.25-11.25 11.25z" fill="#ffffff" data-original="#f44336" style="" class=""/></g></g><g xmlns="http://www.w3.org/2000/svg" id="_x31__x2C_5"><g><path d="m12 24c-6.617 0-12-5.383-12-12s5.383-12 12-12 12 5.383 12 12-5.383 12-12 12zm0-22.5c-5.79 0-10.5 4.71-10.5 10.5s4.71 10.5 10.5 10.5 10.5-4.71 10.5-10.5-4.71-10.5-10.5-10.5z" fill="#e71d36" data-original="#000000" style="" class=""/></g><g><path d="m19.73 10.72c-.191 0-.384-.073-.53-.219-.452-.452-.944-.859-1.461-1.211-.343-.232-.433-.698-.199-1.041.231-.343.697-.435 1.041-.199.595.403 1.16.871 1.68 1.389.293.293.293.768.001 1.062-.147.145-.339.219-.532.219z" fill="#e71d36" data-original="#000000" style="" class=""/></g><g><path d="m4.27 10.72c-.191 0-.383-.073-.529-.219-.294-.292-.296-.767-.003-1.061 2.761-2.772 6.601-3.994 10.606-3.207.406.08.671.475.592.881-.08.406-.474.665-.881.592-3.518-.693-6.848.376-9.255 2.793-.146.147-.338.221-.53.221z" fill="#e71d36" data-original="#000000" style="" class=""/></g><g><path d="m17.04 13.42c-.191 0-.384-.073-.53-.219-.441-.441-.938-.817-1.475-1.116-.362-.202-.491-.659-.29-1.021s.658-.492 1.021-.29c.657.367 1.265.826 1.805 1.364.293.293.293.768.001 1.062-.147.147-.34.22-.532.22z" fill="#e71d36" data-original="#000000" style="" class=""/></g><g><path d="m6.96 13.42c-.192 0-.384-.073-.53-.22-.293-.293-.293-.769 0-1.061 1.072-1.071 2.393-1.802 3.82-2.112.404-.089.805.168.893.572.089.405-.168.805-.572.893-1.147.25-2.212.841-3.08 1.708-.147.147-.34.22-.531.22z" fill="#e71d36" data-original="#000000" style="" class=""/></g><g><path d="m12 18c-.984 0-1.847-.662-2.096-1.609-.105-.4.135-.811.535-.916.397-.102.811.134.916.535.077.293.336.49.645.49.375 0 .68-.305.68-.68 0-.309-.197-.567-.49-.645-.4-.105-.641-.516-.535-.916.105-.401.521-.636.916-.535.947.249 1.609 1.11 1.609 2.096 0 1.202-.978 2.18-2.18 2.18z" fill="#e71d36" data-original="#000000" style="" class=""/></g><g><path d="m4.047 20.703c-.192 0-.384-.073-.53-.22-.293-.293-.293-.768 0-1.061l15.906-15.905c.293-.293.768-.293 1.061 0s.293.768 0 1.061l-15.907 15.905c-.146.147-.338.22-.53.22z" fill="#e71d36" data-original="#000000" style="" class=""/></g></g></g></svg>
